<?xml version="1.0" standalone="no"?><!DOCTYPE svg PUBLIC "-//W3C//DTD SVG 1.1//EN" "http://www.w3.org/Graphics/SVG/1.1/DTD/svg11.dtd"><svg t="1558102485157" class="icon" style="" viewBox="0 0 1024 1024" version="1.1" xmlns="http://www.w3.org/2000/svg" p-id="1555" xmlns:xlink="http://www.w3.org/1999/xlink" width="200" height="200"><defs><style type="text/css"></style></defs><path d="M195.57087133 195.43958967a196.923077 196.923077 0 0 1 278.449231 4.883692l358.4 371.081847A196.923077 196.923077 0 0 1 549.08717933 844.97066667L190.68717933 473.96758967a196.923077 196.923077 0 0 1 4.883692-278.449231z" fill="#D3E0E8" p-id="1556"></path><path d="M616.04102533 330.13497467l-130.599384 9.767384-149.188923-149.819077a50.491077 50.491077 0 0 0-37.179077-15.202461 53.011692 53.011692 0 0 0-37.179077 14.651077L181.54994833 269.32512867a49.860923 49.860923 0 0 0-15.202461 36.706461c0 14.572308 5.041231 27.017846 15.202461 37.179077l149.661539 149.661538-9.846154 131.072a158.168615 158.168615 0 0 1-30.562462-22.921846L107.34933333 417.41128167a154.230154 154.230154 0 0 1-45.686154-111.458461A149.661538 149.661538 0 0 1 107.97948733 195.04574367l80.344615-79.793231a151.000615 151.000615 0 0 1 110.907077-45.371077 150.449231 150.449231 0 0 1 111.458462 46.395077L593.04041033 299.25743567c7.640615 7.876923 15.36 18.116923 23.000615 30.72z m336.97477 395.421538a149.661538 149.661538 0 0 1-46.316308 110.907077l-80.344616 79.793231a151.000615 151.000615 0 0 1-110.907076 45.292308c-44.110769 0-81.289846-15.517538-111.458462-46.316308L421.48102533 732.17312867a161.792 161.792 0 0 1-22.921846-30.562462l130.520616-9.924923 149.110153 149.661538a51.2 51.2 0 0 0 37.179077 14.966154 48.836923 48.836923 0 0 0 37.179077-14.414769l80.344616-79.714462a49.860923 49.860923 0 0 0 15.202461-36.706461 50.333538 50.333538 0 0 0-15.202461-37.179077L683.15241033 538.16451267l9.924923-130.520615c12.681846 7.719385 22.921846 15.202462 30.562462 22.921846l183.532307 183.532308c30.72 31.507692 45.843692 68.529231 45.843693 111.458461z" fill="#27323A" p-id="1557"></path><path d="M257.64102533 643.08512867a16.935385 16.935385 0 0 1 4.883693 12.445538 16.777846 16.777846 0 0 1-17.408 17.408H70.17025633a16.777846 16.777846 0 0 1-17.408-17.329231 16.777846 16.777846 0 0 1 17.329231-17.408h174.867692c5.041231 0 9.452308 1.575385 12.603077 4.883693zM292.45702533 755.56758967L152.72041033 895.54051267a19.377231 19.377231 0 0 1-12.524308 4.883692 19.140923 19.140923 0 0 1-12.445538-4.883692 18.116923 18.116923 0 0 1-4.883693-12.445538c0-4.726154 1.575385-8.979692 4.883693-12.603077l139.736615-139.815385a18.116923 18.116923 0 0 1 12.524308-4.883692c4.647385 0 8.979692 1.575385 12.445538 4.883692a18.116923 18.116923 0 0 1 4.962462 12.524308 16.856615 16.856615 0 0 1-4.962462 12.366769zM384.85333333 777.93805167v174.867692a16.777846 16.777846 0 0 1-17.329231 17.408 16.777846 16.777846 0 0 1-17.408-17.329231v-174.867692a16.777846 16.777846 0 0 1 17.329231-17.486769 16.777846 16.777846 0 0 1 17.408 17.408zM664.56287133 78.70358967v174.867692a16.777846 16.777846 0 0 1-17.408 17.48677 16.777846 16.777846 0 0 1-17.32923-17.408V78.70358967a16.777846 16.777846 0 0 1 17.32923-17.408 16.777846 16.777846 0 0 1 17.329231 17.329231zM747.03425633 301.14789767a19.377231 19.377231 0 0 1-12.524308 4.883692 19.140923 19.140923 0 0 1-12.445538-4.883692 18.116923 18.116923 0 0 1-4.883692-12.524308c0-4.647385 1.575385-8.979692 4.883692-12.445538L861.80102533 136.20512867a18.116923 18.116923 0 0 1 12.524308-4.883693c4.647385 0 8.979692 1.575385 12.445538 4.883693a18.116923 18.116923 0 0 1 4.883693 12.445538 17.880615 17.880615 0 0 1-4.647385 12.603077L747.03425633 301.06912867zM956.87548733 363.37558967a16.935385 16.935385 0 0 1 4.962461 12.603077 16.777846 16.777846 0 0 1-17.408 17.329231H769.40471833a16.777846 16.777846 0 0 1-17.329231-17.329231 16.777846 16.777846 0 0 1 17.329231-17.486769h174.867692c5.12 0 9.373538 1.575385 12.603077 4.883692z" fill="#27323A" p-id="1558"></path></svg>