<?xml version="1.0" encoding="UTF-8"?>
<svg width="20px" height="20px" viewBox="0 0 20 20" version="1.1" xmlns="http://www.w3.org/2000/svg" xmlns:xlink="http://www.w3.org/1999/xlink">
    <!-- Generator: Sketch 55.2 (78181) - https://sketchapp.com -->
    <title>baseline-account_circle-24px</title>
    <desc>Created with Sketch.</desc>
    <defs>
        <linearGradient x1="50%" y1="0%" x2="50%" y2="100%" id="linearGradient-1">
            <stop stop-color="#696D71" offset="0%"></stop>
            <stop stop-color="#999B9E" offset="100%"></stop>
        </linearGradient>
    </defs>
    <g id="组件" stroke="none" stroke-width="1" fill="none" fill-rule="evenodd">
        <g id="icon-/-contact-fill">
            <g id="baseline-account_circle-24px">
                <polygon id="路径" points="0 0 20 0 20 20 0 20"></polygon>
                <path d="M10,1.66666667 C5.4,1.66666667 1.66666667,5.4 1.66666667,10 C1.66666667,14.6 5.4,18.3333333 10,18.3333333 C14.6,18.3333333 18.3333333,14.6 18.3333333,10 C18.3333333,5.4 14.6,1.66666667 10,1.66666667 Z M10,4.16666667 C11.3833333,4.16666667 12.5,5.28333333 12.5,6.66666667 C12.5,8.05 11.3833333,9.16666667 10,9.16666667 C8.61666667,9.16666667 7.5,8.05 7.5,6.66666667 C7.5,5.28333333 8.61666667,4.16666667 10,4.16666667 Z M10,16 C7.91666667,16 6.075,14.9333333 5,13.3166667 C5.025,11.6583333 8.33333333,10.75 10,10.75 C11.6583333,10.75 14.975,11.6583333 15,13.3166667 C13.925,14.9333333 12.0833333,16 10,16 Z" id="形状" fill="url(#linearGradient-1)"></path>
            </g>
        </g>
    </g>
</svg>