<?xml version="1.0" encoding="UTF-8"?>
<svg width="16px" height="16px" viewBox="0 0 16 16" version="1.1" xmlns="http://www.w3.org/2000/svg" xmlns:xlink="http://www.w3.org/1999/xlink">
    <!-- Generator: Sketch 55.2 (78181) - https://sketchapp.com -->
    <title>baseline-move_to_inbox-24px</title>
    <desc>Created with Sketch.</desc>
    <defs>
        <linearGradient x1="50%" y1="0%" x2="50%" y2="100%" id="linearGradient-1">
            <stop stop-color="#696D71" offset="0%"></stop>
            <stop stop-color="#999B9E" offset="100%"></stop>
        </linearGradient>
    </defs>
    <g id="组件" stroke="none" stroke-width="1" fill="none" fill-rule="evenodd">
        <g id="icon-/-download-fill" transform="translate(-2.000000, -2.000000)">
            <g id="baseline-move_to_inbox-24px">
                <polygon id="路径" points="0 0 20 0 20 20 0 20"></polygon>
                <path d="M15.8333333,2.5 L4.15833333,2.5 C3.23333333,2.5 2.50833333,3.25 2.50833333,4.16666667 L2.5,15.8333333 C2.5,16.75 3.23333333,17.5 4.15833333,17.5 L15.8333333,17.5 C16.75,17.5 17.5,16.75 17.5,15.8333333 L17.5,4.16666667 C17.5,3.25 16.75,2.5 15.8333333,2.5 Z M15.8333333,12.5 L12.5,12.5 C12.5,13.8833333 11.375,15 10,15 C8.625,15 7.5,13.8833333 7.5,12.5 L4.15833333,12.5 L4.15833333,4.16666667 L15.8333333,4.16666667 L15.8333333,12.5 Z M13.3333333,8.33333333 L11.6666667,8.33333333 L11.6666667,5.83333333 L8.33333333,5.83333333 L8.33333333,8.33333333 L6.66666667,8.33333333 L10,11.6666667 L13.3333333,8.33333333 Z" id="形状" fill="url(#linearGradient-1)"></path>
            </g>
        </g>
    </g>
</svg>