<?xml version="1.0" encoding="UTF-8"?>
<svg width="20px" height="20px" viewBox="0 0 20 20" version="1.1" xmlns="http://www.w3.org/2000/svg" xmlns:xlink="http://www.w3.org/1999/xlink">
    <!-- Generator: Sketch 55.2 (78181) - https://sketchapp.com -->
    <title>复制链接（面）</title>
    <desc>Created with Sketch.</desc>
    <defs>
        <linearGradient x1="50%" y1="0%" x2="50%" y2="100%" id="linearGradient-1">
            <stop stop-color="#696D71" offset="0%"></stop>
            <stop stop-color="#999B9E" offset="100%"></stop>
        </linearGradient>
    </defs>
    <g id="组件" stroke="none" stroke-width="1" fill="none" fill-rule="evenodd">
        <g id="icon-/-link-fill" fill="url(#linearGradient-1)" fill-rule="nonzero">
            <g id="复制链接（面）">
                <path d="M14.7329193,3.94099379 C15.4180901,3.94099379 15.9751553,4.49611801 15.9751553,5.18322981 L15.9751553,16.673913 C15.9751553,17.3590839 15.4180901,17.9161491 14.7329193,17.9161491 L3.24223602,17.9161491 C2.55706522,17.9161491 2,17.3590839 2,16.673913 L2,5.18322981 C2,4.49805901 2.55706522,3.94099379 3.24223602,3.94099379 L14.7329193,3.94099379 Z M9.81832298,12.933618 C10.5694876,12.1824534 10.6801242,10.9984472 10.0803571,10.121118 C9.88625776,9.83773292 9.5,9.76591615 9.21661491,9.96001553 C8.93322981,10.1541149 8.86141304,10.5403727 9.05551242,10.8237578 C9.31754658,11.2061335 9.26902174,11.7243789 8.9390528,12.0543478 L7.1242236,13.869177 C6.94177019,14.0516304 6.69720497,14.1525621 6.4390528,14.1525621 C6.18090062,14.1525621 5.9363354,14.0516304 5.75388199,13.869177 C5.57142857,13.6867236 5.47049689,13.4421584 5.47049689,13.1840062 C5.47049689,12.925854 5.57142857,12.6812888 5.75388199,12.4988354 L7.24456522,11.0081522 C7.48718944,10.765528 7.48718944,10.3715062 7.24456522,10.128882 C7.00194099,9.88625776 6.60791925,9.88625776 6.36529503,10.128882 L4.8746118,11.6195652 C4.45535714,12.0388199 4.22631988,12.5939441 4.22631988,13.1840062 C4.22631988,13.7760093 4.45729814,14.3311335 4.8746118,14.7484472 C5.29386646,15.1677019 5.84704969,15.3967391 6.4390528,15.3967391 C7.0310559,15.3967391 7.58618012,15.1657609 8.00349379,14.7484472 L9.81832298,12.933618 Z M13.0986025,10.2356366 C13.5159161,9.81832298 13.7468944,9.26319876 13.7468944,8.67313665 C13.7468944,8.08113354 13.5159161,7.52600932 13.0986025,7.10869565 C12.2368012,6.24689441 10.8334627,6.24689441 9.97166149,7.10869565 L8.1568323,8.92352484 C7.4056677,9.67468944 7.29503106,10.8567547 7.89479814,11.7340839 C8.01513975,11.9087733 8.20923913,12.003882 8.4072205,12.003882 C8.52756211,12.003882 8.64984472,11.9689441 8.75659938,11.8951863 C9.03998447,11.701087 9.11180124,11.3148292 8.91770186,11.0314441 C8.6556677,10.6490683 8.70419255,10.130823 9.03416149,9.80085404 L10.8489907,7.98602484 C11.2274845,7.60753106 11.8408385,7.60753106 12.2193323,7.98602484 C12.4017857,8.16847826 12.5027174,8.41304348 12.5027174,8.67119565 C12.5027174,8.92934783 12.4017857,9.17391304 12.2193323,9.35636646 L10.7286491,10.8470497 C10.4860248,11.0896739 10.4860248,11.4836957 10.7286491,11.7263199 C10.9712733,11.9689441 11.365295,11.9689441 11.6079193,11.7263199 L13.0986025,10.2356366 Z M16.673913,2 C17.3590839,2 17.9161491,2.55512422 17.9161491,3.24223602 L17.9161491,14.7329193 C17.9161491,15.4180901 17.3590839,15.9751553 16.673913,15.9751553 L16.363354,15.9751553 L16.363354,4.79503106 C16.363354,4.10986025 15.8062888,3.55279503 15.121118,3.55279503 L3.94099379,3.55279503 L3.94099379,3.24223602 C3.94099379,2.55706522 4.49805901,2 5.18322981,2 L16.673913,2 Z" id="形状结合"></path>
            </g>
        </g>
    </g>
</svg>