<?xml version="1.0" standalone="no"?><!DOCTYPE svg PUBLIC "-//W3C//DTD SVG 1.1//EN" "http://www.w3.org/Graphics/SVG/1.1/DTD/svg11.dtd"><svg t="1558104307322" class="icon" style="" viewBox="0 0 1024 1024" version="1.1" xmlns="http://www.w3.org/2000/svg" p-id="1666" xmlns:xlink="http://www.w3.org/1999/xlink" width="200" height="200"><defs><style type="text/css"></style></defs><path d="M815.95733333 520.265143V331.117714c0-162.889143-130.779429-294.034286-291.547429-294.034285a292.352 292.352 0 0 0-291.474285 292.425142v189.220572c-42.276571 39.643429-64.731429 95.670857-64.731429 168.521143 0 184.685714 134.948571 299.373714 352.256 299.373714 219.648 0 356.059429-115.565714 356.059429-301.568 0-72.045714-20.48-125.659429-60.562286-164.790857zM658.04190433 328.192v183.588571h-269.165714V326.948571c0.146286-36.059429 14.043429-69.193143 39.424-94.134857a134.875429 134.875429 0 0 1 95.378286-38.985143c36.059429 0 69.851429 13.824 95.305143 38.985143 25.307429 24.868571 39.204571 58.075429 39.204571 93.403429l-0.146286 1.974857z" fill="#27323A" p-id="1667"></path><path d="M763.29447633 543.670857c-33.28-16.310857-79.652571-19.090286-79.652572-19.090286H326.19276233c-12.946286 0-26.697143 7.094857-40.009143 16.969143a28.16 28.16 0 0 1-7.826286 10.093715c-36.498286 28.964571-54.125714 73.435429-54.125714 135.606857 0 219.794286 207.140571 243.565714 296.228571 243.565714 187.977143 0 300.105143-91.867429 300.105143-245.76 0-60.781714-16.530286-104.228571-50.468571-132.608a28.525714 28.525714 0 0 1-6.802286-8.777143z" fill="#E65149" p-id="1668"></path><path d="M669.45219033 528.091429c42.569143 0 82.651429 7.826286 99.620572 23.113142a28.086857 28.086857 0 0 1-9.069715-20.260571V329.508571a236.324571 236.324571 0 0 0-235.52-236.617142c-129.901714 0-235.593143 106.057143-235.593143 238.226285v198.656a28.16 28.16 0 0 1-10.532571 21.942857c16.749714-15.725714 57.270857-23.625143 100.205714-23.625142h290.889143zM388.87619033 326.948571c0.146286-36.059429 14.043429-69.193143 39.424-94.134857a134.875429 134.875429 0 0 1 95.378286-38.985143c36.059429 0 69.851429 13.824 95.305143 38.985143 25.307429 24.868571 39.204571 58.075429 39.204571 93.403429l-0.146286 1.974857v183.588571h-269.165714V326.948571z" fill="#D3E0E8" p-id="1669"></path><path d="M632.58819033 222.061714a154.112 154.112 0 0 0-108.982857-44.544c-41.179429 0-79.798857 15.798857-108.982857 44.544-29.110857 28.818286-45.202286 66.998857-45.202286 107.666286l-0.146286 189.074286c0 5.12 4.169143 9.289143 9.362286 9.289143h289.645714c5.12 0 9.362286-4.169143 9.362286-9.289143l0.146286-189.074286c0-40.667429-16.091429-78.921143-45.202286-107.666286z m7.753143 268.8H406.57676233l0.146285-161.133714c0-30.646857 12.141714-59.465143 34.157715-81.188571a117.028571 117.028571 0 0 1 82.724571-33.792 117.028571 117.028571 0 0 1 82.724571 33.792c22.016 21.723429 34.157714 50.468571 34.157715 81.188571L640.34133333 490.788571zM438.02819033 673.133714c0 24.649143 12.434286 46.08 30.866286 61.952v78.848c0 20.626286 16.676571 36.864 37.010286 36.864h32.841142a36.937143 36.937143 0 0 0 36.937143-36.864v-78.774857c18.505143-15.945143 30.939429-37.302857 30.939429-62.025143a84.333714 84.333714 0 0 0-168.594286 0z" fill="#27323A" p-id="1670"></path><path d="M505.90476233 813.568L506.27047633 718.262857l-8.777143-5.485714a46.811429 46.811429 0 0 1 24.868571-86.528 46.738286 46.738286 0 1 1 24.795429 86.528l-8.777143 5.485714v95.670857l-32.402286-0.365714z" fill="#FFFFFF" p-id="1671"></path></svg>