<?xml version="1.0" encoding="UTF-8"?>
<svg width="20px" height="20px" viewBox="0 0 20 20" version="1.1" xmlns="http://www.w3.org/2000/svg" xmlns:xlink="http://www.w3.org/1999/xlink">
    <!-- Generator: Sketch 55.2 (78181) - https://sketchapp.com -->
    <title>baseline-lock-24px</title>
    <desc>Created with Sketch.</desc>
    <defs>
        <linearGradient x1="50%" y1="0%" x2="50%" y2="100%" id="linearGradient-1">
            <stop stop-color="#696D71" offset="0%"></stop>
            <stop stop-color="#999B9E" offset="100%"></stop>
        </linearGradient>
    </defs>
    <g id="组件" stroke="none" stroke-width="1" fill="none" fill-rule="evenodd">
        <g id="icon-/-lock-fill">
            <g id="baseline-lock-24px">
                <polygon id="路径" points="0 0 20 0 20 20 0 20"></polygon>
                <path d="M15,6.66666667 L14.1666667,6.66666667 L14.1666667,5 C14.1666667,2.7 12.3,0.833333333 10,0.833333333 C7.7,0.833333333 5.83333333,2.7 5.83333333,5 L5.83333333,6.66666667 L5,6.66666667 C4.08333333,6.66666667 3.33333333,7.41666667 3.33333333,8.33333333 L3.33333333,16.6666667 C3.33333333,17.5833333 4.08333333,18.3333333 5,18.3333333 L15,18.3333333 C15.9166667,18.3333333 16.6666667,17.5833333 16.6666667,16.6666667 L16.6666667,8.33333333 C16.6666667,7.41666667 15.9166667,6.66666667 15,6.66666667 Z M10,14.1666667 C9.08333333,14.1666667 8.33333333,13.4166667 8.33333333,12.5 C8.33333333,11.5833333 9.08333333,10.8333333 10,10.8333333 C10.9166667,10.8333333 11.6666667,11.5833333 11.6666667,12.5 C11.6666667,13.4166667 10.9166667,14.1666667 10,14.1666667 Z M12.5833333,6.66666667 L7.41666667,6.66666667 L7.41666667,5 C7.41666667,3.575 8.575,2.41666667 10,2.41666667 C11.425,2.41666667 12.5833333,3.575 12.5833333,5 L12.5833333,6.66666667 Z" id="形状" fill="url(#linearGradient-1)"></path>
            </g>
        </g>
    </g>
</svg>