<?xml version="1.0" encoding="UTF-8"?>
<svg width="208px" height="208px" viewBox="0 0 208 208" version="1.1" xmlns="http://www.w3.org/2000/svg" xmlns:xlink="http://www.w3.org/1999/xlink">
    <!-- Generator: Sketch 55.2 (78181) - https://sketchapp.com -->
    <title>logo</title>
    <desc>Created with Sketch.</desc>
    <defs>
        <linearGradient x1="50%" y1="0%" x2="50%" y2="100%" id="linearGradient-1">
            <stop stop-color="#414B5A" offset="0%"></stop>
            <stop stop-color="#2B323B" offset="100%"></stop>
        </linearGradient>
        <linearGradient x1="50%" y1="0%" x2="50%" y2="100%" id="linearGradient-2">
            <stop stop-color="#6D747F" offset="0%"></stop>
            <stop stop-color="#2F363F" offset="100%"></stop>
        </linearGradient>
        <linearGradient x1="50%" y1="0%" x2="50%" y2="100%" id="linearGradient-3">
            <stop stop-color="#DEECFC" offset="0%"></stop>
            <stop stop-color="#B5D4F8" offset="100%"></stop>
        </linearGradient>
        <path d="M131.926686,62.2864173 C134.575572,64.1828732 136.864829,66.4357433 138.794456,69.0450277 C143.724342,75.2288117 146.855074,82.9103803 147.394272,91.2973519 C162.563289,91.7032481 171.288576,98.8548551 173.570133,112.752173 C173.791429,114.100119 173.902628,115.463844 173.902628,116.829835 C173.902628,130.730931 162.633563,142 148.732467,142 L64.8640394,142 C56.2924776,142 48.0372023,138.762464 41.7508394,132.935517 C35.3779764,127.028391 31.8522625,120.300609 31.1736978,112.752173 C29.5917968,95.1549148 39.0809315,82.8528439 48.8070891,77.8820376 C55.1783409,74.6258433 62.9418839,73.8788837 72.0977181,75.6411586 C78.7230094,62.7887122 92.1259926,54 107.581689,54 C116.746965,54 125.190399,57.0905741 131.926686,62.2864173 L131.926686,62.2864173 Z" id="path-4"></path>
        <filter x="-27.3%" y="-30.7%" width="154.6%" height="188.6%" filterUnits="objectBoundingBox" id="filter-5">
            <feMorphology radius="2" operator="dilate" in="SourceAlpha" result="shadowSpreadOuter1"></feMorphology>
            <feOffset dx="0" dy="12" in="shadowSpreadOuter1" result="shadowOffsetOuter1"></feOffset>
            <feGaussianBlur stdDeviation="9" in="shadowOffsetOuter1" result="shadowBlurOuter1"></feGaussianBlur>
            <feColorMatrix values="0 0 0 0 0   0 0 0 0 0   0 0 0 0 0  0 0 0 0.216783217 0" type="matrix" in="shadowBlurOuter1"></feColorMatrix>
        </filter>
    </defs>
    <g id="LOGO" stroke="none" stroke-width="1" fill="none" fill-rule="evenodd">
        <g id="画板" transform="translate(-24.000000, -24.000000)">
            <g id="logo" transform="translate(26.000000, 26.000000)">
                <circle id="椭圆形" fill="#E6E6E6" fill-rule="nonzero" cx="137" cy="106" r="13"></circle>
                <circle id="椭圆形" stroke="url(#linearGradient-2)" stroke-width="3" fill="url(#linearGradient-1)" cx="102" cy="102" r="102"></circle>
                <g id="路径">
                    <use fill="black" fill-opacity="1" filter="url(#filter-5)" xlink:href="#path-4"></use>
                    <use fill="url(#linearGradient-3)" fill-rule="evenodd" xlink:href="#path-4"></use>
                </g>
            </g>
        </g>
    </g>
</svg>