<?xml version="1.0" encoding="UTF-8"?>
<svg width="20px" height="20px" viewBox="0 0 20 20" version="1.1" xmlns="http://www.w3.org/2000/svg" xmlns:xlink="http://www.w3.org/1999/xlink">
    <!-- Generator: Sketch 55.2 (78181) - https://sketchapp.com -->
    <title>baseline-save-24px</title>
    <desc>Created with Sketch.</desc>
    <defs>
        <linearGradient x1="50%" y1="0%" x2="50%" y2="100%" id="linearGradient-1">
            <stop stop-color="#696D71" offset="0%"></stop>
            <stop stop-color="#999B9E" offset="100%"></stop>
        </linearGradient>
    </defs>
    <g id="组件" stroke="none" stroke-width="1" fill="none" fill-rule="evenodd">
        <g id="icon-/-save-fill">
            <g id="baseline-save-24px">
                <polygon id="路径" points="0 0 20 0 20 20 0 20"></polygon>
                <path d="M14.1666667,2.5 L4.16666667,2.5 C3.24166667,2.5 2.5,3.25 2.5,4.16666667 L2.5,15.8333333 C2.5,16.75 3.24166667,17.5 4.16666667,17.5 L15.8333333,17.5 C16.75,17.5 17.5,16.75 17.5,15.8333333 L17.5,5.83333333 L14.1666667,2.5 Z M10,15.8333333 C8.61666667,15.8333333 7.5,14.7166667 7.5,13.3333333 C7.5,11.95 8.61666667,10.8333333 10,10.8333333 C11.3833333,10.8333333 12.5,11.95 12.5,13.3333333 C12.5,14.7166667 11.3833333,15.8333333 10,15.8333333 Z M12.5,7.5 L4.16666667,7.5 L4.16666667,4.16666667 L12.5,4.16666667 L12.5,7.5 Z" id="形状" fill="url(#linearGradient-1)"></path>
            </g>
        </g>
    </g>
</svg>