<?xml version="1.0" standalone="no"?><!DOCTYPE svg PUBLIC "-//W3C//DTD SVG 1.1//EN" "http://www.w3.org/Graphics/SVG/1.1/DTD/svg11.dtd"><svg t="1558104370281" class="icon" style="" viewBox="0 0 1024 1024" version="1.1" xmlns="http://www.w3.org/2000/svg" p-id="1779" xmlns:xlink="http://www.w3.org/1999/xlink" width="200" height="200"><defs><style type="text/css"></style></defs><path d="M234.17904733 319.341714c0-155.648 127.268571-282.331429 283.648-282.331428s283.574857 126.683429 283.574857 282.331428v54.710857c0 15.36-12.580571 27.794286-28.16 27.794286H657.96876233a28.013714 28.013714 0 0 1-28.16-27.794286v-53.979428c0-60.342857-50.395429-109.421714-112.201143-109.421714-61.878857 0-112.347429 49.078857-112.347429 109.421714a53.248 53.248 0 0 1 0.512 4.754286v141.385142c32.182857-3.291429 68.827429-5.046857 108.178286-5.046857 179.492571 0 345.526857 28.379429 345.526857 234.422857 0 178.249143-131.218286 288.914286-342.454857 288.914286-213.577143 0-346.258286-111.469714-346.258286-291.035428 0-69.485714 22.089143-125.732571 63.414857-164.278858v-209.92z" fill="#27323A" p-id="1780"></path><path d="M279.74704733 562.761143a27.794286 27.794286 0 0 0 8.777143-13.312c21.942857-17.554286 52.955429-24.502857 75.337143-27.794286a27.501714 27.501714 0 0 0 13.824 4.022857c1.462857 0 2.779429-0.512 4.242286-0.804571v0.585143c35.84-5.632 81.554286-8.557714 132.022857-8.557715 183.149714 0 289.206857 29.257143 289.206857 178.688 0 210.432-200.118857 233.179429-286.134857 233.179429-181.540571 0-289.938286-87.917714-289.938286-235.300571 0-58.514286 17.773714-102.4 52.955429-130.413715l-0.292572-0.292571z" fill="#52B853" p-id="1781"></path><path d="M349.52533333 497.810286c0 15.36 12.580571 27.867429 28.16 27.867428-23.771429 2.998857-71.606857 9.216-97.645714 37.376l-0.292572-0.219428a27.209143 27.209143 0 0 0 10.752-21.430857V319.341714a227.181714 227.181714 0 0 1 227.328-226.596571 227.181714 227.181714 0 0 1 227.254857 226.596571v26.843429H686.20190433v-26.112c0-91.062857-75.629714-165.156571-168.521142-165.156572-92.964571 0-168.594286 74.093714-168.594286 165.156572l0.512 5.12v172.617143z" fill="#D3E0E8" p-id="1782"></path><path d="M600.25904733 687.908571c0 23.771429-12.068571 44.470857-29.988571 59.904v75.483429a36.352 36.352 0 0 1-36.571429 36.132571H501.88190433a36.352 36.352 0 0 1-36.498285-36.132571v-75.483429c-17.846857-15.36-29.988571-36.059429-29.988572-59.904 0-44.982857 36.937143-81.627429 82.432-81.627428s82.432 36.571429 82.432 81.627428z" fill="#27323A" p-id="1783"></path><path d="M533.69904733 822.272l-0.950857-81.115429v-10.24l8.777143-5.485714a44.032 44.032 0 0 0 21.211429-37.522286 44.763429 44.763429 0 0 0-44.909715-44.470857 44.763429 44.763429 0 0 0-44.909714 44.470857c0 15.36 7.972571 29.257143 21.211429 37.522286l8.777142 5.412572v92.452571l30.793143-1.024z" fill="#FFFFFF" p-id="1784"></path></svg>